<svg width="88" height="65" viewBox="0 0 88 65" fill="none" xmlns="http://www.w3.org/2000/svg">
<path d="M74.4 64.2C76.92 62.04 79.08 59.4 81 56.16C84.36 50.76 87.6 42.72 87.6 31.8C87.6 12 75.6 -6.03217e-07 61.8 0C32.52 1.27987e-06 38.88 42 24.6 42C19.8 42 16.2 38.52 16.2 29.4C16.2 24.6 18 20.76 19.8 18C20.88 16.44 22.08 15.12 23.4 13.8L11.4 1.8C9.36 3.84 7.44 6.12 5.76 8.88C2.88 13.56 -4.03893e-07 20.76 0 30C8.39259e-07 49.2 11.4 60.6 24.6 60.6C53.88 60.6 47.52 18.6 61.8 18.6C67.2 18.6 71.4 22.8 71.4 32.4C71.4 38.76 69.24 43.68 66.96 47.04C65.64 49.08 64.08 50.76 62.4 52.2L74.4 64.2Z" fill="#B3BFBC"/>
</svg>
