<svg width="111" height="43" viewBox="0 0 111 43" fill="none" xmlns="http://www.w3.org/2000/svg">
<path d="M14.7014 0.637654V15.9306L2.89555 0.637654H0.029042V21.8262H3.3536V6.54798L15.1595 21.8262H18.026V0.637654H14.7014ZM33.7705 21.8262V12.4435C33.7705 10.9068 33.1942 9.62135 32.0713 8.57227C30.9335 7.52318 29.4855 6.99125 27.7124 6.99125C27.0032 6.99125 26.3087 7.09468 25.6438 7.28677C24.9789 7.47886 24.447 7.70049 24.048 7.93691C23.6343 8.1881 23.2501 8.46884 22.8955 8.77913C22.5409 9.08942 22.3045 9.31106 22.201 9.42926C22.0976 9.54747 22.0237 9.6509 21.9646 9.72478L23.9298 11.69L24.3288 11.1728C24.5652 10.8477 24.9937 10.5374 25.6143 10.2124C26.2348 9.88731 26.9441 9.72478 27.7124 9.72478C28.599 9.72478 29.323 9.99074 29.8845 10.5079C30.4459 11.0398 30.7415 11.6752 30.7415 12.4435L25.4369 13.3596C24.1219 13.5813 23.0876 14.0984 22.334 14.8963C21.5805 15.709 21.2111 16.7137 21.2111 17.9106C21.2111 19.004 21.6987 19.994 22.6739 20.851C23.6491 21.708 24.8755 22.1365 26.353 22.1365C26.8554 22.1365 27.343 22.0626 27.8454 21.9444C28.333 21.8114 28.7467 21.6636 29.0718 21.5011C29.3969 21.3386 29.6924 21.1613 29.9731 20.9544C30.2539 20.7475 30.4459 20.6146 30.5346 20.5259C30.6233 20.4372 30.6971 20.3634 30.7415 20.3338V21.8409L33.7705 21.8262ZM26.8111 19.4177C26.0132 19.4177 25.3926 19.2256 24.9198 18.871C24.447 18.5016 24.2253 18.0731 24.2253 17.5855C24.2253 17.0684 24.3879 16.6399 24.7277 16.3C25.0528 15.9454 25.496 15.7238 26.0427 15.6351L30.7415 14.8815V15.1771C30.7415 16.5364 30.3868 17.5707 29.6924 18.3095C28.9979 19.0483 28.0375 19.4177 26.8111 19.4177ZM40.2801 7.30155H37.2511V21.8262H40.2801V7.30155ZM40.5904 2.76537C40.5904 2.24822 40.4131 1.81972 40.0733 1.47988C39.7187 1.12526 39.2902 0.962722 38.773 0.962722C38.2411 0.962722 37.8126 1.12526 37.4727 1.47988C37.1181 1.81972 36.9556 2.24822 36.9556 2.76537C36.9556 3.2973 37.1181 3.7258 37.4727 4.06564C37.8126 4.42026 38.2411 4.5828 38.773 4.5828C39.2902 4.5828 39.7187 4.42026 40.0733 4.06564C40.4131 3.7258 40.5904 3.2973 40.5904 2.76537ZM47.0853 0.637654H44.071V21.8262H47.0853V0.637654ZM59.9485 8.97121L59.7564 8.74958C59.6382 8.63137 59.4461 8.48361 59.1802 8.27675C58.9142 8.06989 58.6187 7.8778 58.2788 7.68572C57.9242 7.49363 57.481 7.3311 56.9342 7.19812C56.3875 7.06513 55.8261 6.99125 55.2498 6.99125C53.7722 6.99125 52.5458 7.41975 51.5706 8.27675C50.5954 9.13375 50.1078 10.1237 50.1078 11.2319C50.1078 12.0446 50.2851 12.739 50.6545 13.3153C51.0091 13.8916 51.4672 14.3201 52.0287 14.586C52.5902 14.852 53.1812 15.1032 53.8166 15.3248C54.4519 15.5465 55.0429 15.7385 55.6044 15.8863C56.1511 16.0341 56.6092 16.2557 56.9786 16.5364C57.3332 16.8172 57.5253 17.1718 57.5253 17.5855C57.5253 18.147 57.3184 18.5903 56.9195 18.9153C56.5058 19.2404 55.8999 19.4029 55.102 19.4029C54.4224 19.4029 53.7722 19.2404 53.1369 18.9153C52.5015 18.5903 52.0878 18.3095 51.8957 18.1027C51.7036 17.8958 51.5559 17.7333 51.4672 17.5855L49.502 19.5507L49.7237 19.8314C49.8566 20.0087 50.0783 20.2304 50.3886 20.4816C50.6989 20.7328 51.0683 20.984 51.482 21.2204C51.8957 21.4716 52.4128 21.6784 53.063 21.8557C53.7131 22.033 54.3928 22.1217 55.102 22.1217C56.7126 22.1217 58.0277 21.6784 59.0324 20.7919C60.0372 19.9053 60.5543 18.8415 60.5543 17.5855C60.5543 16.7876 60.3622 16.0932 60.0076 15.5169C59.6382 14.9554 59.1802 14.5269 58.6187 14.2462C58.0572 13.9802 57.4662 13.729 56.8308 13.5074C56.1955 13.2858 55.6044 13.0937 55.0577 12.9459C54.4962 12.7981 54.0382 12.5913 53.6836 12.2958C53.3142 12.015 53.1369 11.6604 53.1369 11.2319C53.1369 10.833 53.3142 10.4783 53.6983 10.1828C54.0825 9.88731 54.5997 9.72478 55.2498 9.72478C55.7226 9.72478 56.2102 9.84299 56.6831 10.0646C57.1559 10.2863 57.481 10.4636 57.6287 10.6113C57.7765 10.7591 57.8947 10.8625 57.9686 10.9364L59.9485 8.97121ZM81.8776 17.8958L82.3357 17.1127C82.6312 16.5808 82.9267 15.7976 83.237 14.7338C83.5325 13.6847 83.695 12.6208 83.695 11.5422H80.9763C80.9763 13.1528 80.6217 14.5121 79.9124 15.6203L75.8195 10.6261L76.7356 9.84299C77.3266 9.34061 77.9325 8.61659 78.5383 7.65617C79.1441 6.69574 79.4544 5.76486 79.4544 4.87831C79.4544 3.65192 78.9668 2.58806 77.9916 1.68674C77.0164 0.800188 75.79 0.342138 74.3124 0.342138C72.8052 0.342138 71.5789 0.814964 70.6184 1.74584C69.6432 2.67672 69.1704 3.82923 69.1704 5.1886C69.1704 5.91262 69.4511 6.75484 70.0126 7.71527C70.5741 8.6757 71.0174 9.34061 71.3572 9.72478C71.6823 10.109 71.963 10.4045 72.1994 10.6261L71.7709 10.9068C71.505 11.0842 71.1799 11.3649 70.7957 11.7491C70.4116 12.1332 70.0274 12.5765 69.6432 13.0493C69.2591 13.5369 68.934 14.128 68.668 14.8372C68.3873 15.5465 68.2543 16.2557 68.2543 16.9945C68.2543 18.413 68.8306 19.6246 69.9978 20.6293C71.1651 21.6341 72.7018 22.1365 74.6079 22.1365C75.5979 22.1365 76.5583 21.9296 77.4744 21.5454C78.3905 21.1613 78.9815 20.851 79.2771 20.6146C79.5578 20.3781 79.7647 20.1713 79.8976 20.0235L80.2818 20.5702C80.5478 20.9101 80.9763 21.2499 81.5673 21.6045C82.1583 21.9592 82.7494 22.1365 83.37 22.1365C83.7837 22.1365 84.1826 22.0774 84.5816 21.9887V19.2404C84.5816 19.2552 84.552 19.27 84.4929 19.2847C84.4338 19.3143 84.3599 19.3291 84.2713 19.3586C84.1826 19.3882 84.0792 19.4029 83.9758 19.4029C83.6211 19.4029 83.2518 19.27 82.8971 18.9892C82.5425 18.7085 82.2913 18.4868 82.1583 18.3243C82.0254 18.1618 81.9367 18.014 81.8776 17.8958ZM74.5931 19.4029C73.4849 19.4029 72.6575 19.1665 72.096 18.6789C71.5493 18.2061 71.2686 17.5412 71.2686 16.6842C71.2686 16.0636 71.505 15.3839 71.9778 14.6747C72.4506 13.9654 72.8348 13.4631 73.1155 13.1971C73.4111 12.9311 73.6475 12.739 73.8396 12.5913L78.228 18.0436L77.8143 18.3834C77.5187 18.6198 77.0607 18.8562 76.4401 19.0779C75.8343 19.2995 75.2137 19.4029 74.5931 19.4029ZM76.5731 5.1886C76.5731 5.63188 76.3662 6.16381 75.9377 6.78439C75.524 7.40498 75.1842 7.83348 74.9182 8.08466C74.667 8.33585 74.4601 8.52794 74.2976 8.66092L73.7214 8.14377C73.3372 7.78915 72.9678 7.31632 72.5836 6.72529C72.2142 6.14903 72.0221 5.63188 72.0221 5.1886C72.0221 4.5828 72.2438 4.08042 72.6575 3.68147C73.086 3.26775 73.6327 3.07566 74.2976 3.07566C74.9773 3.07566 75.524 3.26775 75.9377 3.68147C76.3662 4.09519 76.5731 4.59757 76.5731 5.1886Z" fill="#44C2A0"/>
<path d="M17.1247 20.6377H13.8001V29.577H3.3536V20.6377H0.029042V41.8262H3.3536V32.5913H13.8001V41.8262H17.1247V20.6377ZM32.8544 41.8262V32.4435C32.8544 30.9068 32.2781 29.6213 31.1552 28.5723C30.0174 27.5232 28.5694 26.9913 26.7963 26.9913C26.0871 26.9913 25.3926 27.0947 24.7277 27.2868C24.0628 27.4789 23.5309 27.7005 23.1319 27.9369C22.7182 28.1881 22.334 28.4688 21.9794 28.7791C21.6248 29.0894 21.3884 29.3111 21.2849 29.4293C21.1815 29.5475 21.1076 29.6509 21.0485 29.7248L23.0137 31.69L23.4127 31.1728C23.6491 30.8477 24.0776 30.5374 24.6982 30.2124C25.3187 29.8873 26.028 29.7248 26.7963 29.7248C27.6829 29.7248 28.4069 29.9907 28.9684 30.5079C29.5298 31.0398 29.8254 31.6752 29.8254 32.4435L24.5208 33.3596C23.2058 33.5813 22.1715 34.0984 21.4179 34.8963C20.6644 35.709 20.295 36.7137 20.295 37.9106C20.295 39.004 20.7826 39.994 21.7578 40.851C22.733 41.708 23.9594 42.1365 25.4369 42.1365C25.9393 42.1365 26.4269 42.0626 26.9293 41.9444C27.4169 41.8114 27.8306 41.6636 28.1557 41.5011C28.4808 41.3386 28.7763 41.1613 29.057 40.9544C29.3378 40.7475 29.5298 40.6146 29.6185 40.5259C29.7072 40.4372 29.781 40.3634 29.8254 40.3338V41.8409L32.8544 41.8262ZM25.895 39.4177C25.0971 39.4177 24.4765 39.2256 24.0037 38.871C23.5309 38.5016 23.3092 38.0731 23.3092 37.5855C23.3092 37.0684 23.4718 36.6399 23.8116 36.3C24.1367 35.9454 24.5799 35.7238 25.1267 35.6351L29.8254 34.8815V35.1771C29.8254 36.5364 29.4707 37.5707 28.7763 38.3095C28.0818 39.0483 27.1214 39.4177 25.895 39.4177ZM54.9525 41.8262H57.9816V33.3596C57.9816 31.291 57.494 29.71 56.5188 28.6166C55.5436 27.538 54.2137 26.9913 52.5145 26.9913C51.8939 26.9913 51.3029 27.0799 50.7266 27.2572C50.1504 27.4345 49.6776 27.6266 49.3229 27.8335C48.9683 28.0403 48.6432 28.2915 48.333 28.5723C48.0227 28.8678 47.8158 29.0599 47.7271 29.1633C47.6385 29.2815 47.5646 29.3554 47.5203 29.4145L47.3725 29.1781C47.2839 29.0303 47.1213 28.8235 46.8849 28.5723C46.6485 28.3359 46.3825 28.0847 46.0575 27.8483C45.7472 27.6118 45.3335 27.405 44.8015 27.2424C44.2696 27.0799 43.7229 26.9913 43.1319 26.9913C42.4079 26.9913 41.7134 27.1686 41.0337 27.4936C40.354 27.8335 39.9107 28.0994 39.7039 28.3063C39.497 28.5132 39.3197 28.6757 39.2015 28.8087V27.3015H36.1725V41.8262H39.2015V33.9654C39.2015 32.6504 39.5266 31.6161 40.1619 30.8625C40.7973 30.109 41.5804 29.7248 42.5261 29.7248C43.4569 29.7248 44.1957 30.0351 44.7424 30.6557C45.2891 31.2762 45.5551 32.1776 45.5551 33.3596V41.8262H48.5841V33.9654C48.5841 32.6504 48.9092 31.6161 49.5446 30.8625C50.1799 30.109 50.963 29.7248 51.9087 29.7248C52.8396 29.7248 53.5784 30.0351 54.1251 30.6557C54.6718 31.2762 54.9377 32.1776 54.9377 33.3596L54.9525 41.8262ZM80.0797 41.8262H83.1087V33.3596C83.1087 31.291 82.6211 29.71 81.6459 28.6166C80.6707 27.538 79.3409 26.9913 77.6417 26.9913C77.0211 26.9913 76.4301 27.0799 75.8538 27.2572C75.2775 27.4345 74.8047 27.6266 74.4501 27.8335C74.0955 28.0403 73.7704 28.2915 73.4601 28.5723C73.1498 28.8678 72.943 29.0599 72.8543 29.1633C72.7656 29.2815 72.6918 29.3554 72.6474 29.4145L72.4997 29.1781C72.411 29.0303 72.2485 28.8235 72.0121 28.5723C71.7757 28.3359 71.5097 28.0847 71.1846 27.8483C70.8743 27.6118 70.4606 27.405 69.9287 27.2424C69.3968 27.0799 68.8501 26.9913 68.259 26.9913C67.535 26.9913 66.8405 27.1686 66.1609 27.4936C65.4812 27.8335 65.0379 28.0994 64.831 28.3063C64.6242 28.5132 64.4469 28.6757 64.3287 28.8087V27.3015H61.2996V41.8262H64.3287V33.9654C64.3287 32.6504 64.6537 31.6161 65.2891 30.8625C65.9244 30.109 66.7076 29.7248 67.6532 29.7248C68.5841 29.7248 69.3229 30.0351 69.8696 30.6557C70.4163 31.2762 70.6823 32.1776 70.6823 33.3596V41.8262H73.7113V33.9654C73.7113 32.6504 74.0364 31.6161 74.6717 30.8625C75.3071 30.109 76.0902 29.7248 77.0359 29.7248C77.9667 29.7248 78.7055 30.0351 79.2522 30.6557C79.7989 31.2762 80.0649 32.1776 80.0649 33.3596L80.0797 41.8262ZM99.9023 35.6203L100.065 34.1132C100.065 32.0741 99.3852 30.3897 98.0258 29.0303C96.6664 27.6709 94.982 26.9913 92.9429 26.9913C90.9038 26.9913 89.1603 27.73 87.7123 29.1781C86.2642 30.6261 85.5254 32.3697 85.5254 34.4087C85.5254 36.5364 86.279 38.3539 87.7714 39.861C89.2637 41.3681 91.0368 42.1217 93.0907 42.1217C93.859 42.1217 94.6126 42.0183 95.3366 41.7966C96.0606 41.575 96.6516 41.3386 97.0949 41.0726C97.553 40.8066 97.9815 40.5111 98.3804 40.1713C98.7941 39.8314 99.0601 39.595 99.1783 39.4473C99.2965 39.2995 99.3852 39.1961 99.4443 39.1074L97.4791 37.1422L97.021 37.7037C96.7255 38.0731 96.2084 38.4425 95.4696 38.8267C94.7308 39.2109 93.9477 39.4029 93.0907 39.4029C91.9234 39.4029 90.9186 39.0335 90.0616 38.28C89.2046 37.5412 88.7022 36.6546 88.5397 35.6203H99.9023ZM92.9281 29.577C94.0511 29.577 94.9672 29.9021 95.706 30.5522C96.4448 31.2024 96.9028 32.0298 97.0801 33.0493H88.6727C88.9387 32.0298 89.441 31.2024 90.1798 30.5522C90.9186 29.9021 91.8347 29.577 92.9281 29.577ZM110.638 29.8725V26.9913H109.884C109.382 26.9913 108.88 27.0651 108.377 27.1981C107.875 27.3311 107.476 27.4789 107.151 27.6414C106.826 27.8039 106.53 27.9812 106.235 28.1881C105.954 28.395 105.762 28.5279 105.673 28.6166L105.481 28.8087V27.3015H102.452V41.8262H105.481V33.9654C105.481 32.6356 105.836 31.5865 106.515 30.8477C107.195 30.109 108.111 29.7248 109.264 29.7248C109.766 29.7248 110.224 29.7839 110.638 29.8725Z" fill="#28715D"/>
</svg>
