<svg width="189" height="45" viewBox="0 0 189 45" fill="none" xmlns="http://www.w3.org/2000/svg">
<path d="M52.1753 28.6581C52.1753 29.8107 51.7071 30.7833 50.7886 31.5577C49.852 32.3502 48.5913 32.7284 47.0064 32.7284C46.1419 32.7284 45.3135 32.6383 44.539 32.4222C43.7646 32.2061 43.1523 31.9719 42.684 31.7198C42.2157 31.4677 41.7655 31.1615 41.3693 30.8193C40.973 30.4771 40.7029 30.243 40.5948 30.0989C40.4868 29.9548 40.3967 29.8468 40.3607 29.7747L37.7852 32.3502L38.1454 32.8004C38.3616 33.0706 38.7398 33.3947 39.2441 33.791C39.7483 34.1872 40.3427 34.5834 41.0271 34.9796C41.7114 35.3759 42.5759 35.7 43.6385 35.9882C44.7011 36.2764 45.8178 36.4204 47.0064 36.4204C49.888 36.4204 52.1393 35.7 53.7782 34.2592C55.3991 32.8184 56.2276 30.9454 56.2276 28.6761C56.2276 27.3794 55.9755 26.2627 55.4712 25.3262C54.9669 24.3897 54.3005 23.6693 53.5081 23.165C52.7156 22.6607 51.8331 22.2285 50.8606 21.8683C49.888 21.5081 48.9155 21.2199 47.943 20.9678C46.9704 20.7156 46.0699 20.4455 45.2775 20.1393C44.485 19.8331 43.8366 19.4009 43.3324 18.8606C42.8281 18.3203 42.5759 17.6539 42.5759 16.8615C42.5759 15.979 42.9722 15.2045 43.7826 14.5381C44.5931 13.8898 45.6737 13.5476 47.0064 13.5476C47.6548 13.5476 48.2851 13.6376 48.8795 13.7817C49.4738 13.9438 49.9601 14.1239 50.3203 14.322C50.6805 14.5201 51.0227 14.7363 51.3469 14.9884C51.671 15.2405 51.8692 15.4206 51.9592 15.5287C52.0493 15.6368 52.1213 15.7268 52.1753 15.7628L54.7508 13.1694L54.4626 12.8092C54.2465 12.5931 53.9223 12.3229 53.4901 11.9987C53.0578 11.6745 52.5355 11.3684 51.9592 11.0442C51.3829 10.72 50.6445 10.4498 49.762 10.2157C48.8795 9.98159 47.961 9.85552 47.0064 9.85552C44.395 9.85552 42.3238 10.5399 40.8109 11.8726C39.2801 13.2054 38.5237 14.8803 38.5237 16.8615C38.5237 18.1762 38.7758 19.2928 39.2801 20.2293C39.7844 21.1659 40.4327 21.8683 41.2252 22.3726C42.0176 22.8768 42.9181 23.3091 43.8907 23.6693C44.8632 24.0295 45.8358 24.3357 46.8083 24.5878C47.7809 24.8399 48.6634 25.1101 49.4558 25.4163C50.2482 25.7224 50.9146 26.1367 51.4189 26.677C51.9232 27.2173 52.1753 27.8656 52.1753 28.6581ZM64.3322 23.129C64.3322 20.4635 65.2507 18.1942 67.1057 16.3392C68.9608 14.4841 71.23 13.5476 73.9136 13.5476C76.5971 13.5476 78.8663 14.4841 80.7214 16.3392C82.5764 18.1942 83.5129 20.4635 83.5129 23.129C83.5129 25.8125 82.5764 28.0818 80.7214 29.9368C78.8663 31.8099 76.5971 32.7284 73.9136 32.7284C71.23 32.7284 68.9608 31.8099 67.1057 29.9368C65.2507 28.0818 64.3322 25.8125 64.3322 23.129ZM60.2799 23.129C60.2799 26.8391 61.5766 29.9908 64.2061 32.5483C66.8176 35.1237 70.0594 36.4024 73.9136 36.4024C77.7677 36.4024 81.0095 35.1237 83.621 32.5483C86.2505 29.9908 87.5472 26.8391 87.5472 23.129C87.5472 19.4189 86.2505 16.2851 83.621 13.7097C81.0095 11.1522 77.7677 9.85552 73.9136 9.85552C70.0594 9.85552 66.8176 11.1522 64.2061 13.7097C61.5766 16.2851 60.2799 19.4189 60.2799 23.129ZM103.99 32.7284C102.153 32.7284 100.551 32.044 99.1998 30.6752C97.849 29.3064 97.1826 27.6495 97.1826 25.7224V10.2157H93.1123V25.7224C93.1123 28.6761 94.1569 31.1795 96.2821 33.2687C98.4073 35.3579 100.965 36.4024 103.99 36.4024C107.016 36.4024 109.574 35.3759 111.699 33.2867C113.824 31.1975 114.887 28.6761 114.887 25.7224V10.2157H110.816V25.7224C110.816 27.6315 110.132 29.2884 108.781 30.6572C107.43 32.044 105.827 32.7284 103.99 32.7284ZM138.462 36.0422V32.3502H125.927V10.2157H121.875V36.0422H138.462ZM143.271 10.2157V36.0422H147.323V24.7859H158.381V21.1118H147.323V13.9078H161.335V10.2157H143.271ZM161.317 36.0422H165.549L168.323 29.2164H179.759L182.533 36.0422H186.765L176.067 10.2157H172.015L161.317 36.0422ZM174.05 14.8263L178.282 25.5243H169.799L174.05 14.8263Z" fill="#0D1C17"/>
<path d="M0.299981 17.8056V19.3055H3.44612V28.2976H5.09236V19.3055H8.23851V17.8056H0.299981ZM18.511 17.8056H16.8648V22.2321H11.6919V17.8056H10.0457V28.2976H11.6919V23.7247H16.8648V28.2976H18.511V17.8056ZM23.1498 26.7977V23.5784H27.7226V22.0785H23.1498V19.3055H28.9226V17.8056H21.5035V28.2976H29.0689V26.7977H23.1498Z" fill="#0D1C17"/>
</svg>
