<svg width="159" height="71" viewBox="0 0 159 71" fill="none" xmlns="http://www.w3.org/2000/svg">
<path d="M38.414 58.9436C37.2102 58.9436 36.2023 59.3467 35.3904 60.1418C34.573 60.9425 34.1698 61.9167 34.1698 63.0701C34.1698 64.2236 34.573 65.2034 35.3904 65.9985C36.2023 66.7992 37.2102 67.1967 38.414 67.1967C38.8171 67.1967 39.209 67.1407 39.5898 67.0287C39.9705 66.9167 40.2841 66.788 40.5192 66.648C40.7544 66.5024 40.9784 66.34 41.1911 66.1609C41.4039 65.9761 41.5383 65.8473 41.5999 65.7745C41.6615 65.7017 41.7063 65.6457 41.7343 65.6009L40.928 64.7947L40.8384 64.9347C40.7712 65.0186 40.6648 65.1194 40.5192 65.2426C40.3737 65.3658 40.2113 65.489 40.0209 65.6121C39.8305 65.7353 39.5954 65.8361 39.3098 65.9257C39.0243 66.0153 38.7219 66.0601 38.4084 66.0601C37.5741 66.0601 36.8686 65.7689 36.2919 65.1922C35.7152 64.6099 35.424 63.9044 35.424 63.0757C35.424 62.2415 35.7152 61.536 36.2919 60.9593C36.8742 60.3826 37.5797 60.097 38.4084 60.097C38.7219 60.097 39.0243 60.1362 39.3042 60.2258C39.5842 60.3154 39.8138 60.4106 39.9873 60.5113C40.1665 60.6121 40.3289 60.7353 40.48 60.8753C40.6368 61.0209 40.732 61.116 40.7768 61.172C40.8216 61.228 40.8496 61.2672 40.872 61.2952L41.6727 60.4889L41.5495 60.3322C41.4655 60.2258 41.3311 60.097 41.1463 59.9458C40.9672 59.8002 40.7544 59.6491 40.508 59.4923C40.2617 59.3411 39.9537 59.2123 39.5786 59.106C39.209 58.9996 38.8171 58.9436 38.414 58.9436ZM43.9067 63.0701C43.9067 62.2415 44.1923 61.536 44.769 60.9593C45.3457 60.3826 46.0512 60.0914 46.8855 60.0914C47.7197 60.0914 48.4252 60.3826 49.0019 60.9593C49.5786 61.536 49.8698 62.2415 49.8698 63.0701C49.8698 63.9044 49.5786 64.6099 49.0019 65.1866C48.4252 65.7689 47.7197 66.0545 46.8855 66.0545C46.0512 66.0545 45.3457 65.7689 44.769 65.1866C44.1923 64.6099 43.9067 63.9044 43.9067 63.0701ZM42.6469 63.0701C42.6469 64.2236 43.05 65.2034 43.8675 65.9985C44.6794 66.7992 45.6872 67.1967 46.8855 67.1967C48.0837 67.1967 49.0915 66.7992 49.9034 65.9985C50.7209 65.2034 51.124 64.2236 51.124 63.0701C51.124 61.9167 50.7209 60.9425 49.9034 60.1418C49.0915 59.3467 48.0837 58.9436 46.8855 58.9436C45.6872 58.9436 44.6794 59.3467 43.8675 60.1418C43.05 60.9425 42.6469 61.9167 42.6469 63.0701ZM56.7567 58.9436C55.5529 58.9436 54.5451 59.3467 53.7332 60.1418C52.9157 60.9425 52.5126 61.9167 52.5126 63.0701C52.5126 64.2236 52.9157 65.2034 53.7332 65.9985C54.5451 66.7992 55.5529 67.1967 56.7567 67.1967C57.1599 67.1967 57.5518 67.1407 57.9325 67.0287C58.3133 66.9167 58.6268 66.788 58.862 66.648C59.0972 66.5024 59.3211 66.34 59.5339 66.1609C59.7467 65.9761 59.881 65.8473 59.9426 65.7745C60.0042 65.7017 60.049 65.6457 60.077 65.6009L59.2707 64.7947L59.1811 64.9347C59.1139 65.0186 59.0076 65.1194 58.862 65.2426C58.7164 65.3658 58.554 65.489 58.3637 65.6121C58.1733 65.7353 57.9381 65.8361 57.6526 65.9257C57.367 66.0153 57.0647 66.0601 56.7511 66.0601C55.9168 66.0601 55.2114 65.7689 54.6346 65.1922C54.0579 64.6099 53.7668 63.9044 53.7668 63.0757C53.7668 62.2415 54.0579 61.536 54.6346 60.9593C55.217 60.3826 55.9224 60.097 56.7511 60.097C57.0647 60.097 57.367 60.1362 57.647 60.2258C57.9269 60.3154 58.1565 60.4106 58.3301 60.5113C58.5092 60.6121 58.6716 60.7353 58.8228 60.8753C58.9796 61.0209 59.0748 61.116 59.1195 61.172C59.1643 61.228 59.1923 61.2672 59.2147 61.2952L60.0154 60.4889L59.8922 60.3322C59.8082 60.2258 59.6739 60.097 59.4891 59.9458C59.3099 59.8002 59.0972 59.6491 58.8508 59.4923C58.6044 59.3411 58.2965 59.2123 57.9213 59.106C57.5518 58.9996 57.1599 58.9436 56.7567 58.9436ZM62.2495 63.0701C62.2495 62.2415 62.535 61.536 63.1117 60.9593C63.6884 60.3826 64.3939 60.0914 65.2282 60.0914C66.0625 60.0914 66.768 60.3826 67.3447 60.9593C67.9214 61.536 68.2125 62.2415 68.2125 63.0701C68.2125 63.9044 67.9214 64.6099 67.3447 65.1866C66.768 65.7689 66.0625 66.0545 65.2282 66.0545C64.3939 66.0545 63.6884 65.7689 63.1117 65.1866C62.535 64.6099 62.2495 63.9044 62.2495 63.0701ZM60.9897 63.0701C60.9897 64.2236 61.3928 65.2034 62.2103 65.9985C63.0221 66.7992 64.03 67.1967 65.2282 67.1967C66.4264 67.1967 67.4343 66.7992 68.2461 65.9985C69.0636 65.2034 69.4667 64.2236 69.4667 63.0701C69.4667 61.9167 69.0636 60.9425 68.2461 60.1418C67.4343 59.3467 66.4264 58.9436 65.2282 58.9436C64.03 58.9436 63.0221 59.3467 62.2103 60.1418C61.3928 60.9425 60.9897 61.9167 60.9897 63.0701ZM69.9371 67.0847H71.2529L72.1151 64.9626H75.6706L76.5328 67.0847H77.8486L74.5228 59.0556H73.263L69.9371 67.0847ZM73.8957 60.4889L75.2114 63.8148H72.5743L73.8957 60.4889ZM87.2048 59.0556H85.9394L83.9909 65.1922L82.0424 59.0556H80.721L83.3582 67.0847H84.6236L86.5721 61.0097L88.5206 67.0847H89.7804L92.4176 59.0556H91.1018L89.1533 65.1922L87.2048 59.0556ZM94.4781 63.0701C94.4781 62.2415 94.7636 61.536 95.3403 60.9593C95.917 60.3826 96.6225 60.0914 97.4568 60.0914C98.2911 60.0914 98.9966 60.3826 99.5733 60.9593C100.15 61.536 100.441 62.2415 100.441 63.0701C100.441 63.9044 100.15 64.6099 99.5733 65.1866C98.9966 65.7689 98.2911 66.0545 97.4568 66.0545C96.6225 66.0545 95.917 65.7689 95.3403 65.1866C94.7636 64.6099 94.4781 63.9044 94.4781 63.0701ZM93.2182 63.0701C93.2182 64.2236 93.6214 65.2034 94.4389 65.9985C95.2507 66.7992 96.2586 67.1967 97.4568 67.1967C98.655 67.1967 99.6628 66.7992 100.475 65.9985C101.292 65.2034 101.695 64.2236 101.695 63.0701C101.695 61.9167 101.292 60.9425 100.475 60.1418C99.6628 59.3467 98.655 58.9436 97.4568 58.9436C96.2586 58.9436 95.2507 59.3467 94.4389 60.1418C93.6214 60.9425 93.2182 61.9167 93.2182 63.0701ZM104.344 63.0701C104.344 62.2415 104.629 61.536 105.206 60.9593C105.783 60.3826 106.488 60.0914 107.322 60.0914C108.157 60.0914 108.862 60.3826 109.439 60.9593C110.016 61.536 110.307 62.2415 110.307 63.0701C110.307 63.9044 110.016 64.6099 109.439 65.1866C108.862 65.7689 108.157 66.0545 107.322 66.0545C106.488 66.0545 105.783 65.7689 105.206 65.1866C104.629 64.6099 104.344 63.9044 104.344 63.0701ZM103.084 63.0701C103.084 64.2236 103.487 65.2034 104.305 65.9985C105.116 66.7992 106.124 67.1967 107.322 67.1967C108.521 67.1967 109.529 66.7992 110.34 65.9985C111.158 65.2034 111.561 64.2236 111.561 63.0701C111.561 61.9167 111.158 60.9425 110.34 60.1418C109.529 59.3467 108.521 58.9436 107.322 58.9436C106.124 58.9436 105.116 59.3467 104.305 60.1418C103.487 60.9425 103.084 61.9167 103.084 63.0701ZM113.409 59.0556V67.0847H116.219C117.334 67.0847 118.291 66.6928 119.092 65.8977C119.887 65.1082 120.29 64.1676 120.29 63.0757C120.29 61.9783 119.887 61.0377 119.092 60.2482C118.291 59.4531 117.334 59.0612 116.219 59.0612L113.409 59.0556ZM116.219 60.209C116.998 60.209 117.658 60.4833 118.202 61.0377C118.75 61.592 119.019 62.2695 119.019 63.0757C119.019 63.8764 118.75 64.5539 118.202 65.1082C117.658 65.6625 116.998 65.9425 116.219 65.9425H114.669V60.209H116.219ZM125.906 64.7891C125.906 65.1474 125.76 65.4498 125.475 65.6905C125.184 65.9369 124.792 66.0545 124.299 66.0545C124.03 66.0545 123.773 66.0265 123.532 65.9593C123.291 65.8921 123.101 65.8193 122.955 65.7409C122.81 65.6625 122.67 65.5674 122.546 65.461C122.423 65.3546 122.339 65.2818 122.306 65.237C122.272 65.1922 122.244 65.1586 122.233 65.1362L121.432 65.9369L121.544 66.0769C121.611 66.1609 121.729 66.2616 121.886 66.3848C122.043 66.508 122.227 66.6312 122.44 66.7544C122.653 66.8775 122.922 66.9783 123.252 67.0679C123.582 67.1575 123.929 67.2023 124.299 67.2023C125.195 67.2023 125.895 66.9783 126.404 66.5304C126.908 66.0825 127.166 65.5002 127.166 64.7947C127.166 64.3915 127.087 64.0444 126.931 63.7532C126.774 63.4621 126.567 63.2381 126.32 63.0813C126.074 62.9246 125.8 62.7902 125.497 62.6782C125.195 62.5662 124.893 62.4766 124.59 62.3982C124.288 62.3199 124.008 62.2359 123.761 62.1407C123.515 62.0455 123.314 61.9111 123.157 61.7431C123 61.5752 122.922 61.368 122.922 61.1216C122.922 60.8473 123.045 60.6065 123.297 60.3994C123.549 60.1978 123.885 60.0914 124.299 60.0914C124.501 60.0914 124.697 60.1194 124.881 60.1642C125.066 60.2146 125.217 60.2706 125.329 60.3322C125.441 60.3938 125.548 60.4609 125.648 60.5393C125.749 60.6177 125.811 60.6737 125.839 60.7073C125.867 60.7409 125.889 60.7689 125.906 60.7801L126.707 59.9738L126.617 59.8618C126.55 59.7947 126.449 59.7107 126.315 59.6099C126.18 59.5091 126.018 59.4139 125.839 59.3131C125.66 59.2123 125.43 59.1284 125.156 59.0556C124.881 58.9828 124.596 58.9436 124.299 58.9436C123.487 58.9436 122.843 59.1563 122.373 59.5707C121.897 59.985 121.662 60.5057 121.662 61.1216C121.662 61.5304 121.74 61.8775 121.897 62.1687C122.054 62.4598 122.255 62.6782 122.502 62.835C122.748 62.9918 123.028 63.1261 123.33 63.2381C123.633 63.3501 123.935 63.4453 124.237 63.5237C124.54 63.6021 124.814 63.686 125.06 63.7812C125.307 63.8764 125.514 64.0052 125.671 64.1732C125.828 64.3411 125.906 64.5427 125.906 64.7891Z" fill="#0D1C17"/>
<path d="M69.119 2.97085V4.11867H71.5266V11H72.7864V4.11867H75.1941V2.97085H69.119ZM83.0552 2.97085H81.7954V6.35832H77.8369V2.97085H76.5771V11H77.8369V7.50054H81.7954V11H83.0552V2.97085ZM86.6051 9.85218V7.38856H90.1046V6.24074H86.6051V4.11867H91.0228V2.97085H85.3453V11H91.1348V9.85218H86.6051Z" fill="#0D1C17"/>
<path d="M0.00588294 53.695C5.73928 53.695 8.70715 48.8047 8.70715 43.8808V23.2405C8.70715 22.2625 9.61775 21.4193 10.5958 21.1158V20.7448H3.51337V21.1158C4.49142 21.4193 5.36829 22.2288 5.36829 23.2405L5.33457 44.4204C5.33457 47.4894 3.88435 53.0879 0.00588294 53.0879V53.695ZM19.1658 46.3765L19.267 46.0055C18.5588 45.6682 17.4796 45.2635 17.4796 44.2855L19.5706 39.0242H28.4742L30.4303 43.9482C30.835 44.7576 30.2616 45.6682 29.4522 46.0055L29.5534 46.3765H36.6358L36.5009 45.9718C35.5903 45.7019 34.4099 45.0612 34.0727 44.1843L24.8655 21.3519L15.3548 43.9819C15.0513 44.7914 13.0952 45.7019 12.1846 45.9718L12.0497 46.3765H19.1658ZM24.1573 28.1308L27.631 36.8995H20.4474L24.1573 28.1308ZM61.1045 42.9364C60.7335 42.5992 60.4974 42.0933 60.4974 41.5199V36.225C60.4974 35.2132 61.3405 34.4038 62.3186 34.1003V33.7293H55.4722V34.1003C56.4166 34.4038 57.2934 35.2132 57.2934 36.225V42.9027C55.6409 44.2855 52.8079 45.0612 50.582 45.0612C44.3764 45.0612 41.3074 39.1254 41.3074 33.5269C41.3074 28.0296 44.5113 22.937 50.6157 22.937C54.4267 22.937 57.833 25.1629 59.1146 28.6367L59.1484 28.7379H59.6205L58.8785 22.5323H58.5076L58.2715 23.0382C55.7083 21.9927 52.9765 21.2844 50.1773 21.2844C43.0274 21.2844 37.3952 26.5457 37.3952 33.9316C37.3952 41.6886 42.7913 46.6463 50.7169 46.6463C54.0558 46.6463 58.7099 45.4996 61.1382 43.1725L61.1045 42.9364ZM69.4252 46.3765L69.5264 46.0055C68.8182 45.6682 67.739 45.2635 67.739 44.2855L69.83 39.0242H78.7336L80.6897 43.9482C81.0944 44.7576 80.5211 45.6682 79.7116 46.0055L79.8128 46.3765H86.8952L86.7603 45.9718C85.8497 45.7019 84.6693 45.0612 84.3321 44.1843L75.1249 21.3519L65.6142 43.9819C65.3107 44.7914 63.3546 45.7019 62.444 45.9718L62.3091 46.3765H69.4252ZM74.4167 28.1308L77.8904 36.8995H70.7068L74.4167 28.1308ZM88.3291 46.0055V46.3765H98.5818C103.202 46.3765 107.35 44.2855 107.35 39.2603C107.35 35.2132 104.888 33.2908 101.28 32.414C103.641 31.672 105.158 30.0869 105.158 27.4225C105.158 22.4986 101.044 21.588 96.8955 21.588H88.3291V21.959C89.3072 22.2625 90.184 23.0719 90.184 24.0837V43.8808C90.184 44.8925 89.3072 45.7019 88.3291 46.0055ZM98.3457 33.6955C101.887 33.6955 103.91 35.7528 103.91 39.1591C103.91 42.2282 102.056 44.4878 98.7841 44.4878H93.5229V33.6955H98.3457ZM96.8617 23.1394C99.7284 23.1394 101.954 24.5558 101.954 27.4225C101.954 29.4798 100.572 31.8744 98.312 31.8744H93.5229V23.1394H96.8617ZM115.238 46.3765L115.34 46.0055C114.631 45.6682 113.552 45.2635 113.552 44.2855L115.643 39.0242H124.547L126.503 43.9482C126.908 44.7576 126.334 45.6682 125.525 46.0055L125.626 46.3765H132.708L132.573 45.9718C131.663 45.7019 130.482 45.0612 130.145 44.1843L120.938 21.3519L111.427 43.9819C111.124 44.7914 109.168 45.7019 108.257 45.9718L108.122 46.3765H115.238ZM120.23 28.1308L123.704 36.8995H116.52L120.23 28.1308ZM134.648 21.9252C136.233 22.6672 136.604 22.566 136.604 24.5896V43.8808C136.604 44.8588 135.087 45.7019 134.142 46.0055V46.3765H140.854V46.0055C139.909 45.7019 138.392 44.8588 138.392 43.8808V25.2641L154.344 47.3545V24.0837C154.344 23.1056 155.862 22.2625 156.806 21.959V21.588H150.095V21.959C151.039 22.2625 152.523 23.1056 152.523 24.0837V38.9231L140.044 21.6217H134.648V21.9252Z" fill="#0D1C17"/>
</svg>
