<svg width="247" height="64" viewBox="0 0 247 64" fill="none" xmlns="http://www.w3.org/2000/svg">
<path d="M16.3089 20.9654L7.0145 9.25071H3.7539V33.3523H7.53553V15.8055L16.3089 26.8143L25.0991 15.8055V33.3523H28.8807V9.25071H25.6033L16.3089 20.9654ZM47.8057 33.3523V22.6797C47.8057 20.9317 47.1502 19.4695 45.8728 18.2762C44.5787 17.0829 42.9316 16.4778 40.9147 16.4778C40.108 16.4778 39.318 16.5955 38.5617 16.814C37.8054 17.0325 37.2003 17.2846 36.7465 17.5535C36.2759 17.8392 35.8389 18.1585 35.4355 18.5115C35.0322 18.8645 34.7633 19.1166 34.6456 19.251C34.528 19.3855 34.4439 19.5031 34.3767 19.5872L36.6121 21.8225L37.0659 21.2343C37.3348 20.8645 37.8222 20.5116 38.5281 20.1418C39.234 19.772 40.0407 19.5872 40.9147 19.5872C41.9231 19.5872 42.7467 19.8897 43.3854 20.4779C44.0241 21.083 44.3602 21.8057 44.3602 22.6797L38.3264 23.7217C36.8306 23.9739 35.654 24.5621 34.7969 25.4697C33.9397 26.3941 33.5195 27.537 33.5195 28.8984C33.5195 30.1421 34.0742 31.2682 35.1834 32.243C36.2927 33.2178 37.6877 33.7052 39.3684 33.7052C39.9399 33.7052 40.4945 33.6212 41.066 33.4868C41.6206 33.3355 42.0912 33.1674 42.461 32.9825C42.8307 32.7977 43.1669 32.596 43.4862 32.3607C43.8056 32.1254 44.0241 31.9741 44.1249 31.8733C44.2257 31.7724 44.3098 31.6884 44.3602 31.6548V33.3691L47.8057 33.3523ZM39.8895 30.6127C38.9819 30.6127 38.276 30.3942 37.7381 29.9908C37.2003 29.5707 36.9482 29.0833 36.9482 28.5286C36.9482 27.9404 37.1331 27.453 37.5196 27.0664C37.8894 26.663 38.3936 26.4109 39.0155 26.3101L44.3602 25.4529V25.789C44.3602 27.3353 43.9568 28.5118 43.1669 29.3522C42.3769 30.1925 41.2845 30.6127 39.8895 30.6127ZM59.6884 16.4778C57.5035 16.4778 55.6042 17.3182 54.0076 18.9989C52.3941 20.6796 51.6041 22.6965 51.6041 25.0831C51.6041 27.4698 52.3941 29.5034 54.0076 31.1842C55.6042 32.8649 57.5035 33.6884 59.6884 33.6884C60.6464 33.6884 61.5876 33.4868 62.512 33.0834C63.4532 32.68 64.0583 32.3439 64.344 32.0918C64.6297 31.8228 64.8482 31.6211 64.9995 31.4699V33.3691H68.445V9.26752H64.9995V18.7468L64.7642 18.4947C64.6297 18.3602 64.4112 18.1754 64.0751 17.9401C63.7558 17.7048 63.386 17.4863 62.9826 17.2678C62.5792 17.0493 62.075 16.8644 61.4868 16.7131C60.8985 16.5619 60.2935 16.4778 59.6884 16.4778ZM60.0245 30.6127C58.7136 30.6127 57.5539 30.0749 56.5454 28.9992C55.537 27.9236 55.0328 26.6126 55.0328 25.0999C55.0328 23.5873 55.537 22.2931 56.5454 21.2175C57.5539 20.1418 58.7136 19.604 60.0245 19.604C61.3355 19.604 62.4952 20.1418 63.5036 21.2175C64.5121 22.2931 65.0163 23.5873 65.0163 25.0999C65.0163 26.6126 64.5121 27.9236 63.5036 28.9992C62.4952 30.0749 61.3355 30.6127 60.0245 30.6127ZM77.252 16.8308H73.8065V33.3523H77.252V16.8308ZM77.6049 11.671C77.6049 11.0827 77.4032 10.5953 77.0167 10.2087C76.6133 9.80535 76.1259 9.62047 75.5376 9.62047C74.9326 9.62047 74.4452 9.80535 74.0586 10.2087C73.6552 10.5953 73.4703 11.0827 73.4703 11.671C73.4703 12.276 73.6552 12.7634 74.0586 13.15C74.4452 13.5534 74.9326 13.7382 75.5376 13.7382C76.1259 13.7382 76.6133 13.5534 77.0167 13.15C77.4032 12.7634 77.6049 12.276 77.6049 11.671ZM92.7483 18.73L92.5298 18.4779C92.3953 18.3434 92.1768 18.1754 91.8743 17.9401C91.5717 17.7048 91.2356 17.4863 90.849 17.2678C90.4457 17.0493 89.9414 16.8644 89.3196 16.7131C88.6977 16.5619 88.059 16.4778 87.4035 16.4778C85.7228 16.4778 84.3278 16.9652 83.2185 17.9401C82.1093 18.9149 81.5546 20.041 81.5546 21.3015C81.5546 22.2259 81.7563 23.0158 82.1765 23.6713C82.5799 24.3268 83.1009 24.8142 83.7396 25.1167C84.3782 25.4193 85.0505 25.705 85.7732 25.9571C86.496 26.2092 87.1682 26.4277 87.8069 26.5958C88.4288 26.7639 88.9498 27.016 89.37 27.3353C89.7734 27.6546 89.9919 28.058 89.9919 28.5286C89.9919 29.1673 89.7566 29.6715 89.3028 30.0413C88.8322 30.411 88.1431 30.5959 87.2355 30.5959C86.4623 30.5959 85.7228 30.411 85.0001 30.0413C84.2774 29.6715 83.8068 29.3522 83.5883 29.1169C83.3698 28.8816 83.2017 28.6967 83.1009 28.5286L80.8655 30.764L81.1176 31.0833C81.2689 31.285 81.521 31.5371 81.874 31.8228C82.2269 32.1086 82.6471 32.3943 83.1177 32.6632C83.5883 32.9489 84.1766 33.1842 84.9161 33.3859C85.6556 33.5876 86.4287 33.6884 87.2355 33.6884C89.0675 33.6884 90.5633 33.1842 91.7062 32.1758C92.8491 31.1674 93.4373 29.9572 93.4373 28.5286C93.4373 27.621 93.2189 26.8311 92.8155 26.1756C92.3953 25.5369 91.8743 25.0495 91.2356 24.7302C90.5969 24.4276 89.9246 24.1419 89.2019 23.8898C88.4792 23.6377 87.8069 23.4192 87.1851 23.2511C86.5464 23.0831 86.0254 22.8478 85.622 22.5116C85.2018 22.1923 85.0001 21.7889 85.0001 21.3015C85.0001 20.8477 85.2018 20.4443 85.6388 20.1082C86.0758 19.772 86.664 19.5872 87.4035 19.5872C87.9414 19.5872 88.496 19.7216 89.0339 19.9737C89.5717 20.2258 89.9414 20.4275 90.1095 20.5956C90.2776 20.7637 90.412 20.8813 90.4961 20.9654L92.7483 18.73ZM109.942 25.0999C109.942 26.6462 109.421 27.9404 108.413 28.9992C107.387 30.0749 106.177 30.5959 104.782 30.5959C103.37 30.5959 102.16 30.0749 101.135 28.9992C100.11 27.9404 99.6056 26.6462 99.6056 25.0999C99.6056 23.5537 100.11 22.2595 101.135 21.1839C102.16 20.125 103.37 19.5872 104.782 19.5872C106.177 19.5872 107.387 20.125 108.413 21.1839C109.421 22.2595 109.942 23.5537 109.942 25.0999ZM96.1769 25.0999C96.1769 27.4193 97.0173 29.4194 98.7316 31.1337C100.446 32.8481 102.463 33.7052 104.782 33.7052C107.102 33.7052 109.102 32.8481 110.816 31.1337C112.53 29.4194 113.388 27.4193 113.388 25.0999C113.388 22.7805 112.53 20.7637 110.816 19.0493C109.102 17.335 107.102 16.4778 104.782 16.4778C102.463 16.4778 100.446 17.335 98.7316 19.0493C97.0173 20.7637 96.1769 22.7805 96.1769 25.0999ZM120.615 16.8308H117.169V33.3523H120.615V24.4108C120.615 22.8982 121.001 21.7049 121.774 20.8645C122.547 20.0242 123.606 19.5872 124.917 19.5872C126.027 19.5872 126.968 19.9905 127.724 20.7637C128.48 21.5536 128.867 22.5452 128.867 23.7386V33.3691H132.312V23.7386C132.312 21.52 131.691 19.772 130.447 18.4611C129.203 17.1501 127.59 16.4946 125.59 16.4946C125.018 16.4946 124.464 16.5619 123.892 16.7131C123.321 16.8644 122.867 17.0325 122.497 17.2173C122.127 17.4022 121.791 17.6039 121.455 17.8392C121.136 18.0745 120.917 18.2426 120.816 18.3434L120.598 18.5619L120.615 16.8308ZM147.473 16.8308H144.027V33.3523H147.473V24.4108C147.473 22.8982 147.859 21.7049 148.632 20.8645C149.405 20.0242 150.464 19.5872 151.775 19.5872C152.885 19.5872 153.826 19.9905 154.582 20.7637C155.338 21.5536 155.725 22.5452 155.725 23.7386V33.3691H159.17V23.7386C159.17 21.52 158.549 19.772 157.305 18.4611C156.061 17.1501 154.448 16.4946 152.448 16.4946C151.876 16.4946 151.321 16.5619 150.75 16.7131C150.179 16.8644 149.725 17.0325 149.355 17.2173C148.985 17.4022 148.649 17.6039 148.313 17.8392C147.994 18.0745 147.775 18.2426 147.674 18.3434L147.456 18.5619L147.473 16.8308ZM185.339 20.6124V24.0579H189.995V27.8395L189.743 28.0916C189.575 28.2597 189.323 28.4614 188.953 28.6967C188.583 28.932 188.163 29.1841 187.676 29.4194C187.205 29.6547 186.583 29.8564 185.827 30.0245C185.07 30.1925 184.281 30.2598 183.44 30.2598C180.936 30.2598 178.818 29.4026 177.087 27.6546C175.356 25.9235 174.482 23.8058 174.482 21.3015C174.482 18.814 175.356 16.6963 177.087 14.9652C178.835 13.234 180.953 12.36 183.44 12.36C184.381 12.36 185.289 12.4945 186.129 12.7634C186.97 13.0323 187.659 13.3181 188.18 13.6206C188.718 13.9231 189.205 14.2929 189.659 14.7131C190.129 15.1501 190.415 15.4358 190.55 15.6038C190.684 15.7719 190.768 15.8896 190.835 15.9736L193.239 13.5534L192.869 13.0828C192.617 12.7634 192.214 12.3769 191.659 11.9231C191.121 11.4861 190.482 11.0323 189.743 10.5617C189.003 10.1079 188.079 9.72131 186.953 9.40197C185.844 9.08264 184.667 8.91456 183.44 8.91456C179.843 8.91456 176.818 10.1247 174.364 12.5113C171.927 14.9147 170.7 17.8392 170.7 21.3015C170.7 24.7638 171.927 27.7051 174.364 30.0917C176.818 32.4951 179.843 33.6884 183.44 33.6884C184.717 33.6884 185.961 33.5372 187.155 33.2178C188.348 32.8985 189.306 32.5455 190.045 32.159C190.785 31.7724 191.474 31.3186 192.113 30.7976C192.751 30.2766 193.172 29.9068 193.356 29.7051C193.541 29.5034 193.676 29.3354 193.76 29.2177V20.6124H185.339ZM208.046 19.7552V16.4778H207.189C206.617 16.4778 206.046 16.5619 205.474 16.7131C204.903 16.8644 204.449 17.0325 204.079 17.2173C203.71 17.4022 203.374 17.6039 203.037 17.8392C202.718 18.0745 202.5 18.2258 202.399 18.3266L202.18 18.5451V16.8308H198.735V33.3523H202.18V24.4108C202.18 22.8982 202.584 21.7049 203.357 20.8645C204.13 20.0242 205.172 19.5872 206.483 19.5872C207.054 19.5872 207.575 19.6544 208.046 19.7552ZM226.097 26.2933L226.282 24.5789C226.282 22.2595 225.509 20.3435 223.962 18.7972C222.416 17.251 220.5 16.4778 218.181 16.4778C215.861 16.4778 213.878 17.3182 212.231 18.9653C210.584 20.6124 209.743 22.5957 209.743 24.9151C209.743 27.3353 210.601 29.4026 212.298 31.1169C213.996 32.8313 216.013 33.6884 218.349 33.6884C219.223 33.6884 220.08 33.5708 220.903 33.3187C221.727 33.0666 222.399 32.7977 222.904 32.4951C223.425 32.1926 223.912 31.8565 224.366 31.4699C224.836 31.0833 225.139 30.8144 225.273 30.6463C225.408 30.4783 225.509 30.3606 225.576 30.2598L223.341 28.0244L222.82 28.6631C222.483 29.0833 221.895 29.5034 221.055 29.9404C220.214 30.3774 219.324 30.5959 218.349 30.5959C217.021 30.5959 215.878 30.1757 214.903 29.3186C213.928 28.4782 213.357 27.4698 213.172 26.2933H226.097ZM218.164 19.4191C219.441 19.4191 220.483 19.7888 221.324 20.5284C222.164 21.2679 222.685 22.2091 222.887 23.3688H213.323C213.626 22.2091 214.197 21.2679 215.038 20.5284C215.878 19.7888 216.92 19.4191 218.164 19.4191ZM234.013 35.0666C233.374 36.6801 232.4 37.4869 231.089 37.4869C230.5 37.4869 229.929 37.3692 229.358 37.1339V40.2433L229.593 40.3105C229.778 40.3777 230.08 40.445 230.484 40.4954C230.887 40.5626 231.307 40.5794 231.778 40.5794C233.021 40.5794 234.064 40.176 234.904 39.3525C235.744 38.5457 236.585 37.1171 237.442 35.0666L244.854 16.8308H241.24L236.417 28.8816L231.593 16.8308H227.979L234.702 33.3523L234.013 35.0666Z" fill="#CA0000"/>
<path d="M3.762 46.861V59.7324H5.78158V54.1225H11.2928V52.2914H5.78158V48.701H12.7648V46.861H3.762ZM37.1183 58.0809C36.2027 58.0809 35.4039 57.7398 34.7307 57.0576C34.0575 56.3754 33.7254 55.5496 33.7254 54.5892V46.861H31.6968V54.5892C31.6968 56.0613 32.2174 57.3089 33.2766 58.3501C34.3357 59.3913 35.6103 59.9119 37.1183 59.9119C38.6262 59.9119 39.9008 59.4003 40.96 58.3591C42.0191 57.3179 42.5487 56.0613 42.5487 54.5892V46.861H40.5201V54.5892C40.5201 55.5407 40.1791 56.3665 39.5059 57.0486C38.8327 57.7398 38.0338 58.0809 37.1183 58.0809ZM62.5758 59.7324H64.5953V54.7687H67.5394L70.295 59.7324H72.5031L69.559 54.5892L69.8193 54.4725C69.9988 54.4007 70.2143 54.2661 70.4656 54.0686C70.7169 53.8712 70.9682 53.6468 71.2196 53.3775C71.4709 53.1172 71.6863 52.7581 71.8658 52.3004C72.0453 51.8426 72.1351 51.3489 72.1351 50.8193C72.1351 49.7063 71.7402 48.7639 70.9593 48.0009C70.1694 47.2469 69.182 46.861 67.9972 46.861H62.5758V59.7324ZM70.1065 50.8193C70.1065 51.4207 69.9001 51.9234 69.4962 52.3273C69.0923 52.7312 68.5896 52.9287 67.9972 52.9287H64.5953V48.701H67.9972C68.5896 48.701 69.0923 48.9075 69.4962 49.3114C69.9001 49.7153 70.1065 50.218 70.1065 50.8193ZM100.905 46.861V56.151L93.7329 46.861H91.9916V59.7324H94.0112V50.4513L101.183 59.7324H102.924V46.861H100.905ZM123.149 59.7324H125.168V46.861H123.149V59.7324ZM143.912 46.861V48.701H147.772V59.7324H149.791V48.701H153.651V46.861H143.912ZM177.645 58.0809C176.73 58.0809 175.931 57.7398 175.258 57.0576C174.584 56.3754 174.252 55.5496 174.252 54.5892V46.861H172.224V54.5892C172.224 56.0613 172.744 57.3089 173.803 58.3501C174.863 59.3913 176.137 59.9119 177.645 59.9119C179.153 59.9119 180.428 59.4003 181.487 58.3591C182.546 57.3179 183.076 56.0613 183.076 54.5892V46.861H181.047V54.5892C181.047 55.5407 180.706 56.3665 180.033 57.0486C179.36 57.7398 178.561 58.0809 177.645 58.0809ZM203.103 59.7324H205.122V54.7687H208.066L210.822 59.7324H213.03L210.086 54.5892L210.346 54.4725C210.526 54.4007 210.741 54.2661 210.992 54.0686C211.244 53.8712 211.495 53.6468 211.746 53.3775C211.998 53.1172 212.213 52.7581 212.393 52.3004C212.572 51.8426 212.662 51.3489 212.662 50.8193C212.662 49.7063 212.267 48.7639 211.486 48.0009C210.696 47.2469 209.709 46.861 208.524 46.861H203.103V59.7324ZM210.633 50.8193C210.633 51.4207 210.427 51.9234 210.023 52.3273C209.619 52.7312 209.116 52.9287 208.524 52.9287H205.122V48.701H208.524C209.116 48.701 209.619 48.9075 210.023 49.3114C210.427 49.7153 210.633 50.218 210.633 50.8193ZM234.538 57.8924V53.943H240.148V52.1029H234.538V48.701H241.62V46.861H232.518V59.7324H241.8V57.8924H234.538Z" fill="#3E2020"/>
</svg>
