<svg width="269" height="51" viewBox="0 0 269 51" fill="none" xmlns="http://www.w3.org/2000/svg">
<path d="M6.09982 21.3711V4.08558H0.802644V0.461204H15.5029V4.08558H10.1931V21.3711H6.09982ZM16.6514 21.3711L25.0534 0.461204H28.8678L37.2571 21.3711H32.8344L31.0602 16.6062H22.8483L21.0741 21.3711H16.6514ZM24.255 13.0071H29.6662L26.9543 5.99916L24.255 13.0071ZM41.9975 21.3711V0.461204H46.1034V21.3711H41.9975ZM55.8956 21.3711V12.0567L48.3047 0.461204H53.2471L57.9486 7.87471L62.6502 0.461204H67.5925L60.0016 12.0567V21.3711H55.8956ZM72.0485 21.3711V0.461204H83.682V4.06024H76.1545V9.09129H83.3779V12.6903H76.1545V17.7721H83.682V21.3711H72.0485ZM104.168 21.7766C102.816 21.7766 101.625 21.5401 100.594 21.0669C99.5716 20.5938 98.7733 19.9306 98.1988 19.0773C97.6243 18.224 97.337 17.2271 97.337 16.0866C97.337 14.7517 97.7552 13.5901 98.5916 12.6016C99.4365 11.6047 100.708 10.7514 102.406 10.0417C101.848 9.37431 101.401 8.77869 101.063 8.25489C100.733 7.72264 100.497 7.21573 100.353 6.73417C100.21 6.25261 100.138 5.75838 100.138 5.25147C100.138 4.15317 100.412 3.21962 100.961 2.45081C101.511 1.67356 102.25 1.08216 103.179 0.676638C104.108 0.262666 105.139 0.0556793 106.271 0.0556793C107.285 0.0556793 108.168 0.207751 108.92 0.511895C109.68 0.80759 110.314 1.20889 110.821 1.7158C111.328 2.21425 111.708 2.77185 111.961 3.38859C112.215 3.99688 112.341 4.60939 112.341 5.22612C112.341 6.29063 111.982 7.25797 111.264 8.12816C110.546 8.99835 109.507 9.79251 108.147 10.5106L111.644 14.1984C111.864 14.0294 112.105 13.8224 112.367 13.5774C112.637 13.324 112.908 13.0621 113.178 12.7917C113.448 12.5214 113.702 12.2595 113.938 12.006C114.183 11.7525 114.386 11.5371 114.547 11.3597L117.081 13.7928C116.599 14.342 116.101 14.8911 115.586 15.4403C115.07 15.9894 114.614 16.4457 114.217 16.8089L118.538 21.3711H113.381L111.15 19.0267C110.162 19.8968 109.08 20.5727 107.906 21.0543C106.74 21.5358 105.494 21.7766 104.168 21.7766ZM104.725 17.8734C105.367 17.8734 106.009 17.734 106.651 17.4552C107.294 17.1764 107.902 16.7751 108.476 16.2513L104.522 12.2468C103.728 12.5509 103.103 12.9945 102.647 13.5774C102.191 14.1519 101.963 14.7855 101.963 15.4783C101.963 15.9852 102.081 16.4203 102.317 16.7836C102.562 17.1384 102.896 17.4088 103.319 17.5946C103.741 17.7805 104.21 17.8734 104.725 17.8734ZM106.068 8.25489C106.66 7.93385 107.154 7.61703 107.551 7.30444C107.948 6.99185 108.244 6.66658 108.438 6.32865C108.641 5.98226 108.742 5.60208 108.742 5.18811C108.742 4.75724 108.641 4.37706 108.438 4.04757C108.244 3.70963 107.974 3.44773 107.627 3.26186C107.289 3.06755 106.901 2.97039 106.461 2.97039C106.039 2.97039 105.663 3.06332 105.333 3.24919C105.004 3.43505 104.746 3.69273 104.56 4.02222C104.383 4.34326 104.294 4.71499 104.294 5.13742C104.294 5.47535 104.358 5.80907 104.484 6.13856C104.611 6.4596 104.801 6.79331 105.055 7.1397C105.317 7.47763 105.655 7.84936 106.068 8.25489ZM132.175 21.3711V0.461204H136.281V9.17999L143.948 0.461204H148.967L140.045 10.5233L150.234 21.3711H144.557L136.281 12.5382V21.3711H132.175ZM154.688 21.3711V0.461204H166.322V4.06024H158.794V9.09129H166.017V12.6903H158.794V17.7721H166.322V21.3711H154.688ZM172.993 21.3711V0.461204H177.099V9.09129H184.918V0.461204H189.011V21.3711H184.918V12.6903H177.099V21.3711H172.993ZM196.372 21.3711V0.461204H200.478V21.3711H196.372ZM207.846 21.3711V0.461204H211.952L220.962 14.5279V0.461204H225.068V21.3711H220.962L211.952 7.30444V21.3711H207.846ZM232.413 21.3711V0.461204H238.154C239.641 0.461204 241.022 0.727329 242.298 1.25958C243.574 1.79183 244.689 2.5353 245.643 3.48997C246.607 4.44464 247.354 5.55561 247.886 6.82288C248.427 8.09015 248.698 9.45879 248.698 10.9288C248.698 12.4073 248.431 13.7802 247.899 15.0474C247.367 16.3063 246.619 17.413 245.656 18.3677C244.701 19.3139 243.582 20.0531 242.298 20.5854C241.022 21.1092 239.641 21.3711 238.154 21.3711H232.413ZM236.519 17.696H237.698C238.644 17.696 239.518 17.5271 240.321 17.1891C241.123 16.8512 241.82 16.3781 242.412 15.7698C243.003 15.1615 243.464 14.4476 243.793 13.6281C244.123 12.8002 244.287 11.8962 244.287 10.9161C244.287 9.94458 244.123 9.04904 243.793 8.22954C243.464 7.4016 243.003 6.68348 242.412 6.07519C241.82 5.45846 241.123 4.98112 240.321 4.64318C239.518 4.30524 238.644 4.13628 237.698 4.13628H236.519V17.696ZM254.48 21.3711V0.461204H266.114V4.06024H258.586V9.09129H265.81V12.6903H258.586V17.7721H266.114V21.3711H254.48Z" fill="#0E0E0E"/>
<path d="M49.899 47.7136C50.8986 47.7136 51.7379 47.4008 52.4093 46.7675C53.0808 46.1418 53.4165 45.3864 53.4165 44.509C53.4165 44.1809 53.3555 43.8604 53.2334 43.5552C53.1113 43.25 52.9816 42.9982 52.8442 42.8075C52.7069 42.6091 52.539 42.4336 52.3483 42.2734C52.1499 42.1131 52.0202 42.0063 51.9439 41.9605C51.8676 41.9147 51.8142 41.8766 51.776 41.8613L52.0583 41.6401C52.2338 41.4951 52.4093 41.2433 52.5925 40.877C52.7756 40.5108 52.8671 40.1064 52.8671 39.6715C52.8671 38.9085 52.5543 38.237 51.9286 37.6571C51.303 37.0696 50.5476 36.7797 49.6625 36.7797H45.2141V47.7213L49.899 47.7136ZM46.9309 46.2334V42.6396H49.899C50.4102 42.6396 50.8375 42.8075 51.1809 43.1584C51.5242 43.5018 51.6997 43.9291 51.6997 44.4403C51.6997 44.9439 51.5242 45.3712 51.1809 45.7145C50.8299 46.0579 50.4026 46.2334 49.899 46.2334H46.9309ZM49.6625 38.2675C50.0898 38.2675 50.4408 38.4049 50.7231 38.6872C51.0054 38.9695 51.1504 39.3205 51.1504 39.7478C51.1504 40.1751 51.0054 40.5261 50.7231 40.8084C50.4408 41.0907 50.0898 41.2357 49.6625 41.2357H46.9309V38.2675H49.6625ZM71.6922 46.1494V42.7922H76.461V41.228H71.6922V38.3362H77.7123V36.772H69.9754V47.7136H77.8649V46.1494H71.6922ZM94.2788 36.772V47.7136H98.1091C99.6275 47.7136 100.932 47.1795 102.023 46.096C103.107 45.0202 103.656 43.7383 103.656 42.2505C103.656 40.755 103.107 39.4731 102.023 38.3973C100.932 37.3138 99.6275 36.7797 98.1091 36.7797L94.2788 36.772ZM98.1091 38.3438C99.1697 38.3438 100.07 38.7177 100.81 39.4731C101.558 40.2285 101.924 41.1517 101.924 42.2505C101.924 43.3416 101.558 44.2648 100.81 45.0202C100.07 45.7756 99.1697 46.1571 98.1091 46.1571H95.9956V38.3438H98.1091ZM120.215 36.772V47.7136H124.045C125.564 47.7136 126.869 47.1795 127.96 46.096C129.043 45.0202 129.593 43.7383 129.593 42.2505C129.593 40.755 129.043 39.4731 127.96 38.3973C126.869 37.3138 125.564 36.7797 124.045 36.7797L120.215 36.772ZM124.045 38.3438C125.106 38.3438 126.006 38.7177 126.747 39.4731C127.494 40.2285 127.86 41.1517 127.86 42.2505C127.86 43.3416 127.494 44.2648 126.747 45.0202C126.006 45.7756 125.106 46.1571 124.045 46.1571H121.932V38.3438H124.045ZM146.151 47.7136H147.868V36.772H146.151V47.7136ZM172.629 36.772V44.6692L166.533 36.772H165.053V47.7136H166.77V39.8241L172.866 47.7136H174.346V36.772H172.629ZM197.551 41.93V43.4942H199.664V45.2109L199.55 45.3254C199.474 45.4017 199.359 45.4933 199.191 45.6001C199.024 45.7069 198.833 45.8214 198.612 45.9282C198.398 46.035 198.116 46.1266 197.772 46.2029C197.429 46.2792 197.07 46.3097 196.689 46.3097C195.552 46.3097 194.59 45.9205 193.805 45.127C193.019 44.3411 192.622 43.3797 192.622 42.2428C192.622 41.1136 193.019 40.1522 193.805 39.3663C194.598 38.5804 195.559 38.1836 196.689 38.1836C197.116 38.1836 197.528 38.2446 197.91 38.3667C198.291 38.4888 198.604 38.6185 198.84 38.7559C199.085 38.8932 199.306 39.0611 199.512 39.2518C199.726 39.4502 199.855 39.5799 199.916 39.6562C199.977 39.7325 200.015 39.7859 200.046 39.8241L201.137 38.7253L200.969 38.5117C200.855 38.3667 200.672 38.1912 200.42 37.9852C200.176 37.7868 199.886 37.5808 199.55 37.3672C199.214 37.1612 198.795 36.9857 198.283 36.8407C197.78 36.6957 197.246 36.6194 196.689 36.6194C195.056 36.6194 193.682 37.1688 192.568 38.2523C191.462 39.3434 190.905 40.671 190.905 42.2428C190.905 43.8146 191.462 45.1499 192.568 46.2334C193.682 47.3245 195.056 47.8662 196.689 47.8662C197.269 47.8662 197.833 47.7976 198.375 47.6526C198.917 47.5076 199.352 47.3474 199.687 47.1719C200.023 46.9964 200.336 46.7904 200.626 46.5538C200.916 46.3173 201.107 46.1494 201.19 46.0579C201.274 45.9663 201.335 45.89 201.374 45.8366V41.93H197.551ZM223.411 44.5853C223.411 45.0736 223.213 45.4856 222.823 45.8137C222.427 46.1494 221.893 46.3097 221.221 46.3097C220.855 46.3097 220.504 46.2715 220.176 46.18C219.848 46.0884 219.588 45.9892 219.39 45.8824C219.191 45.7756 219.001 45.6459 218.833 45.5009C218.665 45.3559 218.551 45.2567 218.505 45.1957C218.459 45.1346 218.421 45.0889 218.406 45.0583L217.314 46.1494L217.467 46.3402C217.559 46.4547 217.719 46.592 217.932 46.7599C218.146 46.9277 218.398 47.0956 218.688 47.2634C218.978 47.4313 219.344 47.5687 219.794 47.6907C220.244 47.8128 220.717 47.8739 221.221 47.8739C222.442 47.8739 223.396 47.5687 224.09 46.9582C224.777 46.3478 225.128 45.5543 225.128 44.5929C225.128 44.0435 225.021 43.5705 224.807 43.1737C224.594 42.7769 224.311 42.4717 223.976 42.2581C223.64 42.0444 223.266 41.8613 222.854 41.7087C222.442 41.5561 222.03 41.434 221.618 41.3272C221.206 41.2204 220.824 41.1059 220.489 40.9762C220.153 40.8465 219.878 40.6634 219.665 40.4345C219.451 40.2056 219.344 39.9233 219.344 39.5875C219.344 39.2137 219.512 38.8856 219.855 38.6033C220.199 38.3286 220.656 38.1836 221.221 38.1836C221.496 38.1836 221.763 38.2218 222.015 38.2828C222.266 38.3515 222.472 38.4278 222.625 38.5117C222.778 38.5956 222.923 38.6872 223.06 38.794C223.197 38.9008 223.281 38.9771 223.319 39.0229C223.358 39.0687 223.388 39.1069 223.411 39.1221L224.502 38.0234L224.38 37.8708C224.288 37.7792 224.151 37.6648 223.968 37.5274C223.785 37.3901 223.564 37.2604 223.319 37.123C223.075 36.9857 222.762 36.8712 222.388 36.772C222.015 36.6728 221.625 36.6194 221.221 36.6194C220.115 36.6194 219.237 36.9094 218.596 37.474C217.948 38.0386 217.627 38.7482 217.627 39.5875C217.627 40.1445 217.734 40.6176 217.948 41.0144C218.161 41.4111 218.436 41.7087 218.772 41.9224C219.108 42.136 219.489 42.3191 219.901 42.4717C220.313 42.6243 220.725 42.754 221.137 42.8609C221.549 42.9677 221.923 43.0821 222.259 43.2119C222.594 43.3416 222.877 43.5171 223.09 43.746C223.304 43.9749 223.411 44.2496 223.411 44.5853Z" fill="#804320"/>
</svg>
