<svg width="17" height="17" viewBox="0 0 17 17" fill="none" xmlns="http://www.w3.org/2000/svg">
<path fill-rule="evenodd" clip-rule="evenodd" d="M11.9702 4.56133C11.7888 2.82365 10.3124 1.46878 8.51804 1.46878C7.59711 1.46492 6.71049 1.82707 6.05639 2.47517C5.48858 3.03776 5.13659 3.77561 5.0536 4.56133H5.05296C3.79576 4.56133 2.73952 5.4796 2.44278 7.07402L1.90579 11.2167C1.44871 14.2501 2.87521 15.5835 5.66702 15.5835H11.3815C13.9633 15.5835 15.5064 14.0805 15.1896 11.3832L14.6352 7.10179C14.2798 5.48753 13.2508 4.56133 12.0207 4.56133H11.9702ZM10.9354 4.56133C10.7601 3.38946 9.74436 2.49049 8.51589 2.49049C7.86586 2.48777 7.24153 2.74278 6.78093 3.19915C6.40694 3.56971 6.16591 4.04823 6.08849 4.56133H10.9354ZM5.05296 5.58295H12.0207C12.7421 5.58295 13.3758 6.15337 13.6246 7.27688L14.1494 11.3471C14.4617 13.5126 13.4222 14.5617 11.3815 14.5617H5.66702C3.45737 14.5617 2.56563 13.7281 2.92275 11.3576L3.45682 7.2322C3.6609 6.13992 4.30156 5.58295 5.05296 5.58295ZM10.5481 7.47902C10.8317 7.47902 11.0616 7.70774 11.0616 7.98988C11.0616 8.2485 10.8684 8.46224 10.6178 8.49607L10.5481 8.50073H10.5168C10.2333 8.50073 10.0034 8.27202 10.0034 7.98988C10.0034 7.73125 10.1965 7.51751 10.4471 7.48369L10.5168 7.47902H10.5481ZM7.07019 7.98988C7.07019 7.70774 6.84032 7.47902 6.55677 7.47902H6.52544L6.45578 7.48369C6.20518 7.51751 6.01203 7.73125 6.01203 7.98988C6.01203 8.27202 6.24189 8.50073 6.52544 8.50073H6.55677L6.62644 8.49607C6.87704 8.46224 7.07019 8.2485 7.07019 7.98988Z" fill="#F7F9F9"/>
</svg>
